<mxfile host="app.diagrams.net" agent="Mozilla/5.0 (Windows NT 10.0; Win64; x64) AppleWebKit/537.36 (KHTML, like Gecko) Chrome/130.0.0.0 Safari/537.36" version="24.8.3" pages="2">
  <diagram name="RegApi" id="VuyaqEh1r8IX7GYQfDEg">
    <mxGraphModel dx="989" dy="514" grid="1" gridSize="10" guides="1" tooltips="1" connect="1" arrows="1" fold="1" page="1" pageScale="1" pageWidth="850" pageHeight="1100" math="0" shadow="0">
      <root>
        <mxCell id="0" />
        <mxCell id="1" parent="0" />
        <mxCell id="RwBYtulgWlBibL8N-Wz--8" style="edgeStyle=orthogonalEdgeStyle;rounded=0;orthogonalLoop=1;jettySize=auto;html=1;exitX=1;exitY=0.5;exitDx=0;exitDy=0;entryX=0;entryY=0.5;entryDx=0;entryDy=0;" edge="1" parent="1" source="RwBYtulgWlBibL8N-Wz--1" target="RwBYtulgWlBibL8N-Wz--2">
          <mxGeometry relative="1" as="geometry" />
        </mxCell>
        <mxCell id="RwBYtulgWlBibL8N-Wz--11" value="HTTP Requests" style="edgeLabel;html=1;align=center;verticalAlign=middle;resizable=0;points=[];" vertex="1" connectable="0" parent="RwBYtulgWlBibL8N-Wz--8">
          <mxGeometry x="-0.0091" y="1" relative="1" as="geometry">
            <mxPoint y="-9" as="offset" />
          </mxGeometry>
        </mxCell>
        <mxCell id="RwBYtulgWlBibL8N-Wz--1" value="Client (Browser/Mobile)" style="rounded=0;whiteSpace=wrap;html=1;" vertex="1" parent="1">
          <mxGeometry x="40" y="400" width="120" height="60" as="geometry" />
        </mxCell>
        <mxCell id="RwBYtulgWlBibL8N-Wz--12" style="edgeStyle=orthogonalEdgeStyle;rounded=0;orthogonalLoop=1;jettySize=auto;html=1;exitX=1;exitY=0.5;exitDx=0;exitDy=0;entryX=0;entryY=0.5;entryDx=0;entryDy=0;" edge="1" parent="1" source="RwBYtulgWlBibL8N-Wz--2" target="RwBYtulgWlBibL8N-Wz--3">
          <mxGeometry relative="1" as="geometry">
            <Array as="points">
              <mxPoint x="480" y="430" />
              <mxPoint x="480" y="350" />
            </Array>
          </mxGeometry>
        </mxCell>
        <mxCell id="RwBYtulgWlBibL8N-Wz--13" value="SQL Queries" style="edgeLabel;html=1;align=center;verticalAlign=middle;resizable=0;points=[];" vertex="1" connectable="0" parent="RwBYtulgWlBibL8N-Wz--12">
          <mxGeometry x="-0.0638" y="1" relative="1" as="geometry">
            <mxPoint x="72" y="-9" as="offset" />
          </mxGeometry>
        </mxCell>
        <mxCell id="RwBYtulgWlBibL8N-Wz--14" style="edgeStyle=orthogonalEdgeStyle;rounded=0;orthogonalLoop=1;jettySize=auto;html=1;exitX=1;exitY=0.5;exitDx=0;exitDy=0;entryX=0;entryY=0.5;entryDx=0;entryDy=0;" edge="1" parent="1" source="RwBYtulgWlBibL8N-Wz--2" target="RwBYtulgWlBibL8N-Wz--4">
          <mxGeometry relative="1" as="geometry" />
        </mxCell>
        <mxCell id="RwBYtulgWlBibL8N-Wz--15" value="uploading/retrieving files" style="edgeLabel;html=1;align=center;verticalAlign=middle;resizable=0;points=[];" vertex="1" connectable="0" parent="RwBYtulgWlBibL8N-Wz--14">
          <mxGeometry x="0.3902" relative="1" as="geometry">
            <mxPoint x="-24" y="-10" as="offset" />
          </mxGeometry>
        </mxCell>
        <mxCell id="RwBYtulgWlBibL8N-Wz--17" style="edgeStyle=orthogonalEdgeStyle;rounded=0;orthogonalLoop=1;jettySize=auto;html=1;exitX=1;exitY=0.5;exitDx=0;exitDy=0;entryX=0;entryY=0.5;entryDx=0;entryDy=0;" edge="1" parent="1" source="RwBYtulgWlBibL8N-Wz--2" target="RwBYtulgWlBibL8N-Wz--5">
          <mxGeometry relative="1" as="geometry">
            <Array as="points">
              <mxPoint x="480" y="430" />
              <mxPoint x="480" y="510" />
            </Array>
          </mxGeometry>
        </mxCell>
        <mxCell id="RwBYtulgWlBibL8N-Wz--18" value="asynchronous processing of messages" style="edgeLabel;html=1;align=center;verticalAlign=middle;resizable=0;points=[];" vertex="1" connectable="0" parent="RwBYtulgWlBibL8N-Wz--17">
          <mxGeometry x="0.3985" relative="1" as="geometry">
            <mxPoint x="-1" y="-10" as="offset" />
          </mxGeometry>
        </mxCell>
        <mxCell id="RwBYtulgWlBibL8N-Wz--19" style="edgeStyle=orthogonalEdgeStyle;rounded=0;orthogonalLoop=1;jettySize=auto;html=1;exitX=0.5;exitY=1;exitDx=0;exitDy=0;entryX=0.5;entryY=0;entryDx=0;entryDy=0;" edge="1" parent="1" source="RwBYtulgWlBibL8N-Wz--2" target="RwBYtulgWlBibL8N-Wz--6">
          <mxGeometry relative="1" as="geometry" />
        </mxCell>
        <mxCell id="RwBYtulgWlBibL8N-Wz--20" value="OAuth Authentication" style="edgeLabel;html=1;align=center;verticalAlign=middle;resizable=0;points=[];" vertex="1" connectable="0" parent="RwBYtulgWlBibL8N-Wz--19">
          <mxGeometry x="0.0169" y="1" relative="1" as="geometry">
            <mxPoint as="offset" />
          </mxGeometry>
        </mxCell>
        <mxCell id="RwBYtulgWlBibL8N-Wz--2" value="RegApi" style="rounded=0;whiteSpace=wrap;html=1;" vertex="1" parent="1">
          <mxGeometry x="320" y="400" width="120" height="60" as="geometry" />
        </mxCell>
        <mxCell id="RwBYtulgWlBibL8N-Wz--3" value="SQL Database" style="rounded=0;whiteSpace=wrap;html=1;" vertex="1" parent="1">
          <mxGeometry x="690" y="320" width="120" height="60" as="geometry" />
        </mxCell>
        <mxCell id="RwBYtulgWlBibL8N-Wz--4" value="Azure Blob Storage" style="rounded=0;whiteSpace=wrap;html=1;" vertex="1" parent="1">
          <mxGeometry x="690" y="400" width="120" height="60" as="geometry" />
        </mxCell>
        <mxCell id="RwBYtulgWlBibL8N-Wz--5" value="Azure Service Bus" style="rounded=0;whiteSpace=wrap;html=1;" vertex="1" parent="1">
          <mxGeometry x="690" y="480" width="120" height="60" as="geometry" />
        </mxCell>
        <mxCell id="RwBYtulgWlBibL8N-Wz--6" value="Google&lt;br&gt;Authentication" style="rounded=0;whiteSpace=wrap;html=1;" vertex="1" parent="1">
          <mxGeometry x="320" y="550" width="120" height="60" as="geometry" />
        </mxCell>
      </root>
    </mxGraphModel>
  </diagram>
  <diagram id="PDxa6RLYo8-r8NqX_Q9L" name="AccountController">
    <mxGraphModel dx="1434" dy="746" grid="1" gridSize="10" guides="1" tooltips="1" connect="1" arrows="1" fold="1" page="1" pageScale="1" pageWidth="850" pageHeight="1100" math="0" shadow="0">
      <root>
        <mxCell id="0" />
        <mxCell id="1" parent="0" />
        <mxCell id="rSprbAb2lOTUIJeIylOn-11" style="edgeStyle=entityRelationEdgeStyle;rounded=0;orthogonalLoop=1;jettySize=auto;html=1;exitX=1;exitY=0.5;exitDx=0;exitDy=0;entryX=0;entryY=0.5;entryDx=0;entryDy=0;fillColor=#f8cecc;strokeColor=#b85450;" edge="1" parent="1" source="rSprbAb2lOTUIJeIylOn-1" target="rSprbAb2lOTUIJeIylOn-2">
          <mxGeometry relative="1" as="geometry" />
        </mxCell>
        <mxCell id="rSprbAb2lOTUIJeIylOn-12" style="edgeStyle=entityRelationEdgeStyle;rounded=0;orthogonalLoop=1;jettySize=auto;html=1;exitX=1;exitY=0.5;exitDx=0;exitDy=0;entryX=0;entryY=0.5;entryDx=0;entryDy=0;fillColor=#f8cecc;strokeColor=#b85450;" edge="1" parent="1" source="rSprbAb2lOTUIJeIylOn-1" target="rSprbAb2lOTUIJeIylOn-3">
          <mxGeometry relative="1" as="geometry" />
        </mxCell>
        <mxCell id="rSprbAb2lOTUIJeIylOn-13" style="edgeStyle=entityRelationEdgeStyle;rounded=0;orthogonalLoop=1;jettySize=auto;html=1;exitX=1;exitY=0.5;exitDx=0;exitDy=0;entryX=0;entryY=0.5;entryDx=0;entryDy=0;fillColor=#dae8fc;strokeColor=#6c8ebf;" edge="1" parent="1" source="rSprbAb2lOTUIJeIylOn-1" target="rSprbAb2lOTUIJeIylOn-4">
          <mxGeometry relative="1" as="geometry" />
        </mxCell>
        <mxCell id="rSprbAb2lOTUIJeIylOn-14" style="edgeStyle=entityRelationEdgeStyle;rounded=0;orthogonalLoop=1;jettySize=auto;html=1;exitX=1;exitY=0.5;exitDx=0;exitDy=0;entryX=0;entryY=0.5;entryDx=0;entryDy=0;fillColor=#f8cecc;strokeColor=#b85450;" edge="1" parent="1" source="rSprbAb2lOTUIJeIylOn-1" target="rSprbAb2lOTUIJeIylOn-5">
          <mxGeometry relative="1" as="geometry" />
        </mxCell>
        <mxCell id="rSprbAb2lOTUIJeIylOn-15" style="edgeStyle=entityRelationEdgeStyle;rounded=0;orthogonalLoop=1;jettySize=auto;html=1;exitX=1;exitY=0.5;exitDx=0;exitDy=0;entryX=0;entryY=0.5;entryDx=0;entryDy=0;fillColor=#f8cecc;strokeColor=#b85450;" edge="1" parent="1" source="rSprbAb2lOTUIJeIylOn-1" target="rSprbAb2lOTUIJeIylOn-6">
          <mxGeometry relative="1" as="geometry" />
        </mxCell>
        <mxCell id="rSprbAb2lOTUIJeIylOn-16" style="edgeStyle=entityRelationEdgeStyle;rounded=0;orthogonalLoop=1;jettySize=auto;html=1;exitX=1;exitY=0.5;exitDx=0;exitDy=0;entryX=0;entryY=0.5;entryDx=0;entryDy=0;" edge="1" parent="1" source="rSprbAb2lOTUIJeIylOn-1" target="rSprbAb2lOTUIJeIylOn-7">
          <mxGeometry relative="1" as="geometry" />
        </mxCell>
        <mxCell id="rSprbAb2lOTUIJeIylOn-17" style="edgeStyle=entityRelationEdgeStyle;rounded=0;orthogonalLoop=1;jettySize=auto;html=1;exitX=1;exitY=0.5;exitDx=0;exitDy=0;entryX=0;entryY=0.5;entryDx=0;entryDy=0;fillColor=#dae8fc;strokeColor=#6c8ebf;" edge="1" parent="1" source="rSprbAb2lOTUIJeIylOn-1" target="rSprbAb2lOTUIJeIylOn-8">
          <mxGeometry relative="1" as="geometry" />
        </mxCell>
        <mxCell id="rSprbAb2lOTUIJeIylOn-18" style="edgeStyle=entityRelationEdgeStyle;rounded=0;orthogonalLoop=1;jettySize=auto;html=1;exitX=1;exitY=0.5;exitDx=0;exitDy=0;entryX=0;entryY=0.5;entryDx=0;entryDy=0;fillColor=#f8cecc;strokeColor=#b85450;" edge="1" parent="1" source="rSprbAb2lOTUIJeIylOn-1" target="rSprbAb2lOTUIJeIylOn-10">
          <mxGeometry relative="1" as="geometry" />
        </mxCell>
        <mxCell id="rSprbAb2lOTUIJeIylOn-19" style="edgeStyle=entityRelationEdgeStyle;rounded=0;orthogonalLoop=1;jettySize=auto;html=1;exitX=1;exitY=0.5;exitDx=0;exitDy=0;entryX=0;entryY=0.5;entryDx=0;entryDy=0;fillColor=#dae8fc;strokeColor=#6c8ebf;" edge="1" parent="1" source="rSprbAb2lOTUIJeIylOn-1" target="rSprbAb2lOTUIJeIylOn-9">
          <mxGeometry relative="1" as="geometry" />
        </mxCell>
        <mxCell id="rSprbAb2lOTUIJeIylOn-1" value="AccountController" style="rounded=0;whiteSpace=wrap;html=1;" vertex="1" parent="1">
          <mxGeometry x="235" y="520" width="120" height="60" as="geometry" />
        </mxCell>
        <mxCell id="rSprbAb2lOTUIJeIylOn-26" style="edgeStyle=orthogonalEdgeStyle;rounded=0;orthogonalLoop=1;jettySize=auto;html=1;exitX=1;exitY=0.5;exitDx=0;exitDy=0;fillColor=#dae8fc;strokeColor=#6c8ebf;" edge="1" parent="1" source="rSprbAb2lOTUIJeIylOn-2">
          <mxGeometry relative="1" as="geometry">
            <mxPoint x="550.2857142857144" y="230.0000000000001" as="targetPoint" />
          </mxGeometry>
        </mxCell>
        <mxCell id="rSprbAb2lOTUIJeIylOn-28" style="rounded=0;orthogonalLoop=1;jettySize=auto;html=1;exitX=1;exitY=0.5;exitDx=0;exitDy=0;entryX=0;entryY=0.5;entryDx=0;entryDy=0;fillColor=#e1d5e7;strokeColor=#9673a6;" edge="1" parent="1" source="rSprbAb2lOTUIJeIylOn-2" target="rSprbAb2lOTUIJeIylOn-22">
          <mxGeometry relative="1" as="geometry" />
        </mxCell>
        <mxCell id="rSprbAb2lOTUIJeIylOn-44" style="edgeStyle=orthogonalEdgeStyle;rounded=0;orthogonalLoop=1;jettySize=auto;html=1;exitX=0;exitY=0.5;exitDx=0;exitDy=0;entryX=0.5;entryY=0;entryDx=0;entryDy=0;elbow=vertical;curved=1;fillColor=#f8cecc;strokeColor=#b85450;" edge="1" parent="1" source="rSprbAb2lOTUIJeIylOn-2" target="rSprbAb2lOTUIJeIylOn-1">
          <mxGeometry relative="1" as="geometry" />
        </mxCell>
        <mxCell id="rSprbAb2lOTUIJeIylOn-2" value="POST /api/accounts&lt;br&gt;/register" style="rounded=0;whiteSpace=wrap;html=1;" vertex="1" parent="1">
          <mxGeometry x="430" y="200" width="120" height="60" as="geometry" />
        </mxCell>
        <mxCell id="rSprbAb2lOTUIJeIylOn-29" style="rounded=0;orthogonalLoop=1;jettySize=auto;html=1;exitX=1;exitY=0.5;exitDx=0;exitDy=0;entryX=0;entryY=0.5;entryDx=0;entryDy=0;fillColor=#e1d5e7;strokeColor=#9673a6;" edge="1" parent="1" source="rSprbAb2lOTUIJeIylOn-3" target="rSprbAb2lOTUIJeIylOn-22">
          <mxGeometry relative="1" as="geometry" />
        </mxCell>
        <mxCell id="rSprbAb2lOTUIJeIylOn-38" style="rounded=0;orthogonalLoop=1;jettySize=auto;html=1;exitX=1;exitY=0.5;exitDx=0;exitDy=0;entryX=0;entryY=0.5;entryDx=0;entryDy=0;fillColor=#d5e8d4;strokeColor=#82b366;" edge="1" parent="1" source="rSprbAb2lOTUIJeIylOn-3" target="rSprbAb2lOTUIJeIylOn-23">
          <mxGeometry relative="1" as="geometry" />
        </mxCell>
        <mxCell id="rSprbAb2lOTUIJeIylOn-40" style="rounded=0;orthogonalLoop=1;jettySize=auto;html=1;exitX=1;exitY=0.5;exitDx=0;exitDy=0;entryX=0;entryY=0.5;entryDx=0;entryDy=0;fillColor=#a0522d;strokeColor=#6D1F00;" edge="1" parent="1" source="rSprbAb2lOTUIJeIylOn-3" target="rSprbAb2lOTUIJeIylOn-24">
          <mxGeometry relative="1" as="geometry" />
        </mxCell>
        <mxCell id="rSprbAb2lOTUIJeIylOn-45" style="edgeStyle=orthogonalEdgeStyle;rounded=0;orthogonalLoop=1;jettySize=auto;html=1;exitX=0;exitY=0.5;exitDx=0;exitDy=0;entryX=0.5;entryY=0;entryDx=0;entryDy=0;fillColor=#f8cecc;strokeColor=#b85450;curved=1;" edge="1" parent="1" source="rSprbAb2lOTUIJeIylOn-3" target="rSprbAb2lOTUIJeIylOn-1">
          <mxGeometry relative="1" as="geometry" />
        </mxCell>
        <mxCell id="rSprbAb2lOTUIJeIylOn-3" value="POST /api/accounts&lt;br&gt;/authenticate" style="rounded=0;whiteSpace=wrap;html=1;" vertex="1" parent="1">
          <mxGeometry x="430" y="280" width="120" height="60" as="geometry" />
        </mxCell>
        <mxCell id="rSprbAb2lOTUIJeIylOn-30" style="rounded=0;orthogonalLoop=1;jettySize=auto;html=1;exitX=1;exitY=0.5;exitDx=0;exitDy=0;fillColor=#e1d5e7;strokeColor=#9673a6;" edge="1" parent="1" source="rSprbAb2lOTUIJeIylOn-4">
          <mxGeometry relative="1" as="geometry">
            <mxPoint x="680" y="369.9999999999999" as="targetPoint" />
          </mxGeometry>
        </mxCell>
        <mxCell id="rSprbAb2lOTUIJeIylOn-54" style="edgeStyle=orthogonalEdgeStyle;rounded=0;orthogonalLoop=1;jettySize=auto;html=1;exitX=0;exitY=0.5;exitDx=0;exitDy=0;curved=1;fillColor=#dae8fc;strokeColor=#6c8ebf;" edge="1" parent="1" source="rSprbAb2lOTUIJeIylOn-4" target="rSprbAb2lOTUIJeIylOn-1">
          <mxGeometry relative="1" as="geometry" />
        </mxCell>
        <mxCell id="rSprbAb2lOTUIJeIylOn-4" value="&lt;br&gt;GET /api/accounts&lt;br&gt;/emailconfirmation&lt;div&gt;&lt;br/&gt;&lt;/div&gt;" style="rounded=0;whiteSpace=wrap;html=1;" vertex="1" parent="1">
          <mxGeometry x="430" y="840" width="120" height="60" as="geometry" />
        </mxCell>
        <mxCell id="rSprbAb2lOTUIJeIylOn-31" style="rounded=0;orthogonalLoop=1;jettySize=auto;html=1;exitX=1;exitY=0.5;exitDx=0;exitDy=0;entryX=0;entryY=0.5;entryDx=0;entryDy=0;fillColor=#e1d5e7;strokeColor=#9673a6;" edge="1" parent="1" source="rSprbAb2lOTUIJeIylOn-5" target="rSprbAb2lOTUIJeIylOn-22">
          <mxGeometry relative="1" as="geometry" />
        </mxCell>
        <mxCell id="rSprbAb2lOTUIJeIylOn-47" style="edgeStyle=orthogonalEdgeStyle;rounded=0;orthogonalLoop=1;jettySize=auto;html=1;exitX=0;exitY=0.5;exitDx=0;exitDy=0;entryX=0.5;entryY=0;entryDx=0;entryDy=0;fillColor=#f8cecc;strokeColor=#b85450;curved=1;" edge="1" parent="1" source="rSprbAb2lOTUIJeIylOn-5" target="rSprbAb2lOTUIJeIylOn-1">
          <mxGeometry relative="1" as="geometry" />
        </mxCell>
        <mxCell id="rSprbAb2lOTUIJeIylOn-5" value="POST /api/accounts&lt;br&gt;/forgotpassword" style="rounded=0;whiteSpace=wrap;html=1;" vertex="1" parent="1">
          <mxGeometry x="430" y="360" width="120" height="60" as="geometry" />
        </mxCell>
        <mxCell id="rSprbAb2lOTUIJeIylOn-32" style="rounded=0;orthogonalLoop=1;jettySize=auto;html=1;exitX=1;exitY=0.5;exitDx=0;exitDy=0;fillColor=#e1d5e7;strokeColor=#9673a6;" edge="1" parent="1" source="rSprbAb2lOTUIJeIylOn-6">
          <mxGeometry relative="1" as="geometry">
            <mxPoint x="680" y="369.9999999999999" as="targetPoint" />
          </mxGeometry>
        </mxCell>
        <mxCell id="rSprbAb2lOTUIJeIylOn-48" style="edgeStyle=orthogonalEdgeStyle;rounded=0;orthogonalLoop=1;jettySize=auto;html=1;exitX=0;exitY=0.5;exitDx=0;exitDy=0;entryX=0.5;entryY=0;entryDx=0;entryDy=0;fillColor=#f8cecc;strokeColor=#b85450;curved=1;" edge="1" parent="1" source="rSprbAb2lOTUIJeIylOn-6" target="rSprbAb2lOTUIJeIylOn-1">
          <mxGeometry relative="1" as="geometry" />
        </mxCell>
        <mxCell id="rSprbAb2lOTUIJeIylOn-6" value="POST /api/accounts&lt;br&gt;/resetpassword" style="rounded=0;whiteSpace=wrap;html=1;" vertex="1" parent="1">
          <mxGeometry x="430" y="440" width="120" height="60" as="geometry" />
        </mxCell>
        <mxCell id="rSprbAb2lOTUIJeIylOn-33" style="rounded=0;orthogonalLoop=1;jettySize=auto;html=1;exitX=1;exitY=0.5;exitDx=0;exitDy=0;fillColor=#e1d5e7;strokeColor=#9673a6;" edge="1" parent="1" source="rSprbAb2lOTUIJeIylOn-7">
          <mxGeometry relative="1" as="geometry">
            <mxPoint x="680" y="369.9999999999999" as="targetPoint" />
          </mxGeometry>
        </mxCell>
        <mxCell id="rSprbAb2lOTUIJeIylOn-51" style="edgeStyle=orthogonalEdgeStyle;rounded=0;orthogonalLoop=1;jettySize=auto;html=1;exitX=0;exitY=0.5;exitDx=0;exitDy=0;entryX=1;entryY=0.5;entryDx=0;entryDy=0;curved=1;" edge="1" parent="1" source="rSprbAb2lOTUIJeIylOn-7" target="rSprbAb2lOTUIJeIylOn-1">
          <mxGeometry relative="1" as="geometry" />
        </mxCell>
        <mxCell id="rSprbAb2lOTUIJeIylOn-7" value="DELETE /api/accounts&lt;br&gt;/delete" style="rounded=0;whiteSpace=wrap;html=1;" vertex="1" parent="1">
          <mxGeometry x="430" y="600" width="120" height="60" as="geometry" />
        </mxCell>
        <mxCell id="rSprbAb2lOTUIJeIylOn-41" style="rounded=0;orthogonalLoop=1;jettySize=auto;html=1;exitX=1;exitY=0.5;exitDx=0;exitDy=0;entryX=0;entryY=0.5;entryDx=0;entryDy=0;fillColor=#fff2cc;strokeColor=#d6b656;" edge="1" parent="1" source="rSprbAb2lOTUIJeIylOn-8" target="rSprbAb2lOTUIJeIylOn-25">
          <mxGeometry relative="1" as="geometry" />
        </mxCell>
        <mxCell id="rSprbAb2lOTUIJeIylOn-52" style="edgeStyle=orthogonalEdgeStyle;rounded=0;orthogonalLoop=1;jettySize=auto;html=1;exitX=0;exitY=0.5;exitDx=0;exitDy=0;entryX=0.5;entryY=1;entryDx=0;entryDy=0;curved=1;fillColor=#dae8fc;strokeColor=#6c8ebf;" edge="1" parent="1" source="rSprbAb2lOTUIJeIylOn-8" target="rSprbAb2lOTUIJeIylOn-1">
          <mxGeometry relative="1" as="geometry" />
        </mxCell>
        <mxCell id="rSprbAb2lOTUIJeIylOn-8" value="GET /api/accounts&lt;br&gt;/login" style="rounded=0;whiteSpace=wrap;html=1;" vertex="1" parent="1">
          <mxGeometry x="430" y="680" width="120" height="60" as="geometry" />
        </mxCell>
        <mxCell id="rSprbAb2lOTUIJeIylOn-34" style="rounded=0;orthogonalLoop=1;jettySize=auto;html=1;exitX=1;exitY=0.5;exitDx=0;exitDy=0;fillColor=#e1d5e7;strokeColor=#9673a6;" edge="1" parent="1" source="rSprbAb2lOTUIJeIylOn-9">
          <mxGeometry relative="1" as="geometry">
            <mxPoint x="680" y="369.9999999999999" as="targetPoint" />
          </mxGeometry>
        </mxCell>
        <mxCell id="rSprbAb2lOTUIJeIylOn-39" style="rounded=0;orthogonalLoop=1;jettySize=auto;html=1;exitX=1;exitY=0.5;exitDx=0;exitDy=0;entryX=0;entryY=0.5;entryDx=0;entryDy=0;fillColor=#d5e8d4;strokeColor=#82b366;" edge="1" parent="1" source="rSprbAb2lOTUIJeIylOn-9" target="rSprbAb2lOTUIJeIylOn-23">
          <mxGeometry relative="1" as="geometry" />
        </mxCell>
        <mxCell id="rSprbAb2lOTUIJeIylOn-42" style="rounded=0;orthogonalLoop=1;jettySize=auto;html=1;exitX=1;exitY=0.5;exitDx=0;exitDy=0;entryX=0;entryY=0.5;entryDx=0;entryDy=0;fillColor=#fff2cc;strokeColor=#d6b656;" edge="1" parent="1" source="rSprbAb2lOTUIJeIylOn-9" target="rSprbAb2lOTUIJeIylOn-25">
          <mxGeometry relative="1" as="geometry" />
        </mxCell>
        <mxCell id="rSprbAb2lOTUIJeIylOn-53" style="edgeStyle=orthogonalEdgeStyle;rounded=0;orthogonalLoop=1;jettySize=auto;html=1;exitX=0;exitY=0.5;exitDx=0;exitDy=0;curved=1;fillColor=#dae8fc;strokeColor=#6c8ebf;" edge="1" parent="1" source="rSprbAb2lOTUIJeIylOn-9" target="rSprbAb2lOTUIJeIylOn-1">
          <mxGeometry relative="1" as="geometry" />
        </mxCell>
        <mxCell id="rSprbAb2lOTUIJeIylOn-9" value="GET /api/accounts&lt;br&gt;/google-auth" style="rounded=0;whiteSpace=wrap;html=1;" vertex="1" parent="1">
          <mxGeometry x="430" y="760" width="120" height="60" as="geometry" />
        </mxCell>
        <mxCell id="rSprbAb2lOTUIJeIylOn-35" style="rounded=0;orthogonalLoop=1;jettySize=auto;html=1;exitX=1;exitY=0.5;exitDx=0;exitDy=0;entryX=0;entryY=0.5;entryDx=0;entryDy=0;fillColor=#e1d5e7;strokeColor=#9673a6;" edge="1" parent="1" source="rSprbAb2lOTUIJeIylOn-10" target="rSprbAb2lOTUIJeIylOn-22">
          <mxGeometry relative="1" as="geometry" />
        </mxCell>
        <mxCell id="rSprbAb2lOTUIJeIylOn-43" style="rounded=0;orthogonalLoop=1;jettySize=auto;html=1;exitX=1;exitY=0.5;exitDx=0;exitDy=0;entryX=0;entryY=0.5;entryDx=0;entryDy=0;fillColor=#a0522d;strokeColor=#6D1F00;" edge="1" parent="1" source="rSprbAb2lOTUIJeIylOn-10" target="rSprbAb2lOTUIJeIylOn-24">
          <mxGeometry relative="1" as="geometry" />
        </mxCell>
        <mxCell id="rSprbAb2lOTUIJeIylOn-50" style="edgeStyle=orthogonalEdgeStyle;rounded=0;orthogonalLoop=1;jettySize=auto;html=1;exitX=0;exitY=0.5;exitDx=0;exitDy=0;entryX=0.5;entryY=0;entryDx=0;entryDy=0;fillColor=#f8cecc;strokeColor=#b85450;curved=1;" edge="1" parent="1" source="rSprbAb2lOTUIJeIylOn-10" target="rSprbAb2lOTUIJeIylOn-1">
          <mxGeometry relative="1" as="geometry" />
        </mxCell>
        <mxCell id="rSprbAb2lOTUIJeIylOn-10" value="&lt;br&gt;POST /api/accounts&lt;br&gt;/uploadavatar&lt;div&gt;&lt;br/&gt;&lt;/div&gt;" style="rounded=0;whiteSpace=wrap;html=1;" vertex="1" parent="1">
          <mxGeometry x="430" y="520" width="120" height="60" as="geometry" />
        </mxCell>
        <mxCell id="rSprbAb2lOTUIJeIylOn-21" style="edgeStyle=orthogonalEdgeStyle;rounded=0;orthogonalLoop=1;jettySize=auto;html=1;exitX=1;exitY=0.5;exitDx=0;exitDy=0;entryX=0;entryY=0.5;entryDx=0;entryDy=0;" edge="1" parent="1" source="rSprbAb2lOTUIJeIylOn-20" target="rSprbAb2lOTUIJeIylOn-1">
          <mxGeometry relative="1" as="geometry" />
        </mxCell>
        <mxCell id="rSprbAb2lOTUIJeIylOn-20" value="Client&lt;br&gt;----------------&lt;br&gt;&amp;nbsp;Google service" style="rounded=0;whiteSpace=wrap;html=1;" vertex="1" parent="1">
          <mxGeometry x="40" y="520" width="120" height="60" as="geometry" />
        </mxCell>
        <mxCell id="rSprbAb2lOTUIJeIylOn-22" value="&lt;strong&gt;UserService&lt;/strong&gt;" style="rounded=0;whiteSpace=wrap;html=1;" vertex="1" parent="1">
          <mxGeometry x="680" y="340" width="120" height="60" as="geometry" />
        </mxCell>
        <mxCell id="rSprbAb2lOTUIJeIylOn-23" value="&lt;strong&gt;JwtService&lt;/strong&gt;" style="rounded=0;whiteSpace=wrap;html=1;" vertex="1" parent="1">
          <mxGeometry x="680" y="460" width="120" height="60" as="geometry" />
        </mxCell>
        <mxCell id="rSprbAb2lOTUIJeIylOn-24" value="&lt;strong&gt;SasService&lt;/strong&gt;" style="rounded=0;whiteSpace=wrap;html=1;" vertex="1" parent="1">
          <mxGeometry x="680" y="580" width="120" height="60" as="geometry" />
        </mxCell>
        <mxCell id="rSprbAb2lOTUIJeIylOn-25" value="&lt;b&gt;Google Authentication&lt;br&gt;&lt;/b&gt;" style="rounded=0;whiteSpace=wrap;html=1;" vertex="1" parent="1">
          <mxGeometry x="680" y="700" width="120" height="60" as="geometry" />
        </mxCell>
      </root>
    </mxGraphModel>
  </diagram>
</mxfile>
